<svg id="SvgjsSvg1001" width="394" height="296" xmlns="http://www.w3.org/2000/svg" version="1.1" xmlns:xlink="http://www.w3.org/1999/xlink" xmlns:svgjs="http://svgjs.com/svgjs"><defs id="SvgjsDefs1002"><marker id="SvgjsMarker1034" markerWidth="14" markerHeight="10" refX="10" refY="5" viewBox="0 0 14 10" orient="auto" markerUnits="userSpaceOnUse" stroke-dasharray="0,0"><path id="SvgjsPath1035" d="M0,0 L14,5 L0,10 L0,0" fill="#323232" stroke="#323232" stroke-width="1"></path></marker><marker id="SvgjsMarker1050" markerWidth="14" markerHeight="10" refX="10" refY="5" viewBox="0 0 14 10" orient="auto" markerUnits="userSpaceOnUse" stroke-dasharray="0,0"><path id="SvgjsPath1051" d="M0,0 L14,5 L0,10 L0,0" fill="#323232" stroke="#323232" stroke-width="1"></path></marker><marker id="SvgjsMarker1058" markerWidth="14" markerHeight="10" refX="10" refY="5" viewBox="0 0 14 10" orient="auto" markerUnits="userSpaceOnUse" stroke-dasharray="0,0"><path id="SvgjsPath1059" d="M0,0 L14,5 L0,10 L0,0" fill="#323232" stroke="#323232" stroke-width="1"></path></marker><marker id="SvgjsMarker1066" markerWidth="14" markerHeight="10" refX="10" refY="5" viewBox="0 0 14 10" orient="auto" markerUnits="userSpaceOnUse" stroke-dasharray="0,0"><path id="SvgjsPath1067" d="M0,0 L14,5 L0,10 L0,0" fill="#323232" stroke="#323232" stroke-width="1"></path></marker></defs><g id="SvgjsG1008" transform="translate(138,25)"><path id="SvgjsPath1009" d="M 0 18Q 0 0 18 0L 80 0Q 98 0 98 18L 98 12Q 98 30 80 30L 18 30Q 0 30 0 12L 0 18Z" stroke="rgba(33,41,48,1)" stroke-width="2" fill-opacity="1" fill="#ffffff"></path><g id="SvgjsG1010"><text id="SvgjsText1011" font-family="微软雅黑" text-anchor="middle" font-size="13px" width="78px" fill="#323232" font-weight="400" align="middle" lineHeight="125%" anchor="middle" family="微软雅黑" size="13px" weight="400" font-style="" opacity="1" y="4.375" transform="rotate(0)"><tspan id="SvgjsTspan1012" dy="16" x="49"><tspan id="SvgjsTspan1013" style="text-decoration:;">调用Bean</tspan></tspan></text></g></g><g id="SvgjsG1014" transform="translate(103,112)"><path id="SvgjsPath1015" d="M 0 34C 0 -11.333333333333334 168 -11.333333333333334 168 34C 168 79.33333333333333 0 79.33333333333333 0 34Z" stroke-dasharray="10,6" stroke="rgba(33,41,48,1)" stroke-width="2" fill-opacity="1" fill="#ffffff"></path><g id="SvgjsG1016"><text id="SvgjsText1017" font-family="微软雅黑" text-anchor="middle" font-size="13px" width="148px" fill="#323232" font-weight="400" align="middle" lineHeight="125%" anchor="middle" family="微软雅黑" size="13px" weight="400" font-style="" opacity="1" y="6.875" transform="rotate(0)"><tspan id="SvgjsTspan1018" dy="16" x="84"><tspan id="SvgjsTspan1019" style="text-decoration:;">JDK代理</tspan></tspan><tspan id="SvgjsTspan1020" dy="16" x="84"><tspan id="SvgjsTspan1021" style="text-decoration:;">代表对目标bean的调用</tspan></tspan><tspan id="SvgjsTspan1022" dy="16" x="84"><tspan id="SvgjsTspan1023" style="text-decoration:;">method（）｛...｝</tspan></tspan></text></g></g><g id="SvgjsG1024" transform="translate(25,226)"><path id="SvgjsPath1025" d="M 0 18Q 0 0 18 0L 80 0Q 98 0 98 18L 98 27Q 98 45 80 45L 18 45Q 0 45 0 27L 0 18Z" stroke="rgba(33,41,48,1)" stroke-width="2" fill-opacity="1" fill="#ffffff"></path><g id="SvgjsG1026"><text id="SvgjsText1027" font-family="微软雅黑" text-anchor="middle" font-size="13px" width="78px" fill="#323232" font-weight="400" align="middle" lineHeight="125%" anchor="middle" family="微软雅黑" size="13px" weight="400" font-style="" opacity="1" y="3.375" transform="rotate(0)"><tspan id="SvgjsTspan1028" dy="16" x="49"><tspan id="SvgjsTspan1029" style="text-decoration:;">目标bean </tspan></tspan><tspan id="SvgjsTspan1030" dy="16" x="49"><tspan id="SvgjsTspan1031" style="text-decoration:;">method(){...}</tspan></tspan></text></g></g><g id="SvgjsG1032"><path id="SvgjsPath1033" d="M102 146L71 146L71 222.39999999999998" stroke="#323232" stroke-width="2" fill="none" marker-end="url(#SvgjsMarker1034)"></path><rect id="SvgjsRect1036" width="52" height="16" x="45" y="166.45357142857142" fill="#ffffff"></rect><text id="SvgjsText1037" font-family="微软雅黑" text-anchor="middle" font-size="13px" width="52px" fill="#323232" font-weight="400" align="top" lineHeight="16px" anchor="middle" family="微软雅黑" size="13px" weight="400" font-style="" opacity="1" y="163.82857142857142" transform="rotate(0)"><tspan id="SvgjsTspan1038" dy="16" x="71"><tspan id="SvgjsTspan1039" style="text-decoration:;">调用方法</tspan></tspan></text></g><g id="SvgjsG1040" transform="translate(271,226)"><path id="SvgjsPath1041" d="M 0 18Q 0 0 18 0L 80 0Q 98 0 98 18L 98 27Q 98 45 80 45L 18 45Q 0 45 0 27L 0 18Z" stroke="rgba(33,41,48,1)" stroke-width="2" fill-opacity="1" fill="#ffffff"></path><g id="SvgjsG1042"><text id="SvgjsText1043" font-family="微软雅黑" text-anchor="middle" font-size="13px" width="78px" fill="#323232" font-weight="400" align="middle" lineHeight="125%" anchor="middle" family="微软雅黑" size="13px" weight="400" font-style="" opacity="1" y="3.375" transform="rotate(0)"><tspan id="SvgjsTspan1044" dy="16" x="49"><tspan id="SvgjsTspan1045" style="text-decoration:;">接口</tspan></tspan><tspan id="SvgjsTspan1046" dy="16" x="49"><tspan id="SvgjsTspan1047" style="text-decoration:;">method();</tspan></tspan></text></g></g><g id="SvgjsG1048"><path id="SvgjsPath1049" d="M187 181L187 203L320 203L320 222.39999999999998" stroke-dasharray="3,3" stroke="#323232" stroke-width="2" fill="none" marker-end="url(#SvgjsMarker1050)"></path><rect id="SvgjsRect1052" width="75" height="16" x="192.77821229050278" y="195" fill="#ffffff"></rect><text id="SvgjsText1053" font-family="微软雅黑" text-anchor="middle" font-size="13px" width="75px" fill="#323232" font-weight="400" align="top" lineHeight="16px" anchor="middle" family="微软雅黑" size="13px" weight="400" font-style="" opacity="1" y="192.375" transform="rotate(0)"><tspan id="SvgjsTspan1054" dy="16" x="230.27821229050278"><tspan id="SvgjsTspan1055" style="text-decoration:;">&lt;implements&gt;</tspan></tspan></text></g><g id="SvgjsG1056"><path id="SvgjsPath1057" d="M270 248.5L197 248.5L197 248.5L126.6 248.5" stroke-dasharray="3,3" stroke="#323232" stroke-width="2" fill="none" marker-end="url(#SvgjsMarker1058)"></path><rect id="SvgjsRect1060" width="75" height="16" x="154.01756756756757" y="240.5" fill="#ffffff"></rect><text id="SvgjsText1061" font-family="微软雅黑" text-anchor="middle" font-size="13px" width="75px" fill="#323232" font-weight="400" align="top" lineHeight="16px" anchor="middle" family="微软雅黑" size="13px" weight="400" font-style="" opacity="1" y="237.875" transform="rotate(0)"><tspan id="SvgjsTspan1062" dy="16" x="191.51756756756757"><tspan id="SvgjsTspan1063" style="text-decoration:;">&lt;implements&gt;</tspan></tspan></text></g><g id="SvgjsG1064"><path id="SvgjsPath1065" d="M187 56L187 83.5L187 83.5L187 108.4" stroke="#323232" stroke-width="2" fill="none" marker-end="url(#SvgjsMarker1066)"></path><rect id="SvgjsRect1068" width="52" height="16" x="161" y="66.38596491228071" fill="#ffffff"></rect><text id="SvgjsText1069" font-family="微软雅黑" text-anchor="middle" font-size="13px" width="52px" fill="#323232" font-weight="400" align="top" lineHeight="16px" anchor="middle" family="微软雅黑" size="13px" weight="400" font-style="" opacity="1" y="63.76096491228071" transform="rotate(0)"><tspan id="SvgjsTspan1070" dy="16" x="187"><tspan id="SvgjsTspan1071" style="text-decoration:;">调用方法</tspan></tspan></text></g></svg>