<svg id="SvgjsSvg1001" width="1005.921875" height="702.5" xmlns="http://www.w3.org/2000/svg" version="1.1" xmlns:xlink="http://www.w3.org/1999/xlink" xmlns:svgjs="http://svgjs.com/svgjs"><defs id="SvgjsDefs1002"><marker id="SvgjsMarker1138" markerWidth="14" markerHeight="10" refX="10" refY="5" viewBox="0 0 14 10" orient="auto" markerUnits="userSpaceOnUse" stroke-dasharray="0,0"><path id="SvgjsPath1139" d="M0,0 L14,5 L0,10 L0,0" fill="#323232" stroke="#323232" stroke-width="1"></path></marker><marker id="SvgjsMarker1178" markerWidth="14" markerHeight="10" refX="10" refY="5" viewBox="0 0 14 10" orient="auto" markerUnits="userSpaceOnUse" stroke-dasharray="0,0"><path id="SvgjsPath1179" d="M0,0 L14,5 L0,10 L0,0" fill="#323232" stroke="#323232" stroke-width="1"></path></marker><marker id="SvgjsMarker1182" markerWidth="14" markerHeight="10" refX="10" refY="5" viewBox="0 0 14 10" orient="auto" markerUnits="userSpaceOnUse" stroke-dasharray="0,0"><path id="SvgjsPath1183" d="M0,0 L14,5 L0,10 L0,0" fill="#323232" stroke="#323232" stroke-width="1"></path></marker><marker id="SvgjsMarker1186" markerWidth="14" markerHeight="10" refX="10" refY="5" viewBox="0 0 14 10" orient="auto" markerUnits="userSpaceOnUse" stroke-dasharray="0,0"><path id="SvgjsPath1187" d="M0,0 L14,5 L0,10 L0,0" fill="#323232" stroke="#323232" stroke-width="1"></path></marker><marker id="SvgjsMarker1238" markerWidth="14" markerHeight="10" refX="10" refY="5" viewBox="0 0 14 10" orient="auto" markerUnits="userSpaceOnUse" stroke-dasharray="0,0"><path id="SvgjsPath1239" d="M0,0 L14,5 L0,10 L0,0" fill="#323232" stroke="#323232" stroke-width="1"></path></marker><marker id="SvgjsMarker1256" markerWidth="14" markerHeight="10" refX="10" refY="5" viewBox="0 0 14 10" orient="auto" markerUnits="userSpaceOnUse" stroke-dasharray="0,0"><path id="SvgjsPath1257" d="M0,0 L14,5 L0,10 L0,0" fill="#323232" stroke="#323232" stroke-width="1"></path></marker><marker id="SvgjsMarker1260" markerWidth="14" markerHeight="10" refX="10" refY="5" viewBox="0 0 14 10" orient="auto" markerUnits="userSpaceOnUse" stroke-dasharray="0,0"><path id="SvgjsPath1261" d="M0,0 L14,5 L0,10 L0,0" fill="#323232" stroke="#323232" stroke-width="1"></path></marker><marker id="SvgjsMarker1264" markerWidth="14" markerHeight="10" refX="10" refY="5" viewBox="0 0 14 10" orient="auto" markerUnits="userSpaceOnUse" stroke-dasharray="0,0"><path id="SvgjsPath1265" d="M0,0 L14,5 L0,10 L0,0" fill="#323232" stroke="#323232" stroke-width="1"></path></marker><marker id="SvgjsMarker1268" markerWidth="14" markerHeight="10" refX="10" refY="5" viewBox="0 0 14 10" orient="auto" markerUnits="userSpaceOnUse" stroke-dasharray="0,0"><path id="SvgjsPath1269" d="M0,0 L14,5 L0,10 L0,0" fill="#323232" stroke="#323232" stroke-width="1"></path></marker><marker id="SvgjsMarker1272" markerWidth="14" markerHeight="10" refX="10" refY="5" viewBox="0 0 14 10" orient="auto" markerUnits="userSpaceOnUse" stroke-dasharray="0,0"><path id="SvgjsPath1273" d="M0,0 L14,5 L0,10 L0,0" fill="#323232" stroke="#323232" stroke-width="1"></path></marker><marker id="SvgjsMarker1276" markerWidth="14" markerHeight="10" refX="10" refY="5" viewBox="0 0 14 10" orient="auto" markerUnits="userSpaceOnUse" stroke-dasharray="0,0"><path id="SvgjsPath1277" d="M0,0 L14,5 L0,10 L0,0" fill="#323232" stroke="#323232" stroke-width="1"></path></marker><marker id="SvgjsMarker1280" markerWidth="14" markerHeight="10" refX="10" refY="5" viewBox="0 0 14 10" orient="auto" markerUnits="userSpaceOnUse" stroke-dasharray="0,0"><path id="SvgjsPath1281" d="M0,0 L14,5 L0,10 L0,0" fill="#323232" stroke="#323232" stroke-width="1"></path></marker><marker id="SvgjsMarker1284" markerWidth="14" markerHeight="10" refX="10" refY="5" viewBox="0 0 14 10" orient="auto" markerUnits="userSpaceOnUse" stroke-dasharray="0,0"><path id="SvgjsPath1285" d="M0,0 L14,5 L0,10 L0,0" fill="#323232" stroke="#323232" stroke-width="1"></path></marker></defs><g id="SvgjsG1008" transform="translate(749.1875,391)"><path id="SvgjsPath1009" d="M 0 46C 0 -15.333333333333334 144.75 -15.333333333333334 144.75 46C 144.75 107.33333333333333 0 107.33333333333333 0 46Z" stroke-dasharray="10,6" stroke="rgba(33,41,48,1)" stroke-width="2" fill-opacity="1" fill="#ffffff"></path><g id="SvgjsG1010"><text id="SvgjsText1011" font-family="微软雅黑" text-anchor="middle" font-size="13px" width="125px" fill="#323232" font-weight="400" align="middle" lineHeight="125%" anchor="middle" family="微软雅黑" size="13px" weight="400" font-style="" opacity="1" y="35.375" transform="rotate(0)"></text></g></g><g id="SvgjsG1012" transform="translate(611.9375,376.5)"><path id="SvgjsPath1013" d="M 0 125.25C 0 -41.75 120 -41.75 120 125.25C 120 292.25 0 292.25 0 125.25Z" stroke-dasharray="10,6" stroke="rgba(33,41,48,1)" stroke-width="2" fill-opacity="1" fill="#ffffff"></path><g id="SvgjsG1014"><text id="SvgjsText1015" font-family="微软雅黑" text-anchor="middle" font-size="13px" width="100px" fill="#323232" font-weight="400" align="middle" lineHeight="125%" anchor="middle" family="微软雅黑" size="13px" weight="400" font-style="" opacity="1" y="114.625" transform="rotate(0)"></text></g></g><g id="SvgjsG1016" transform="translate(270.9375,25)"><path id="SvgjsPath1017" d="M 0 45C 0 -15 265 -15 265 45C 265 105 0 105 0 45Z" stroke-dasharray="10,6" stroke="rgba(33,41,48,1)" stroke-width="2" fill-opacity="1" fill="#ffffff"></path><g id="SvgjsG1018"><text id="SvgjsText1019" font-family="微软雅黑" text-anchor="middle" font-size="13px" width="245px" fill="#323232" font-weight="400" align="middle" lineHeight="125%" anchor="middle" family="微软雅黑" size="13px" weight="400" font-style="" opacity="1" y="34.375" transform="rotate(0)"></text></g></g><g id="SvgjsG1020" transform="translate(324.4375,38.5)"><path id="SvgjsPath1021" d="M 0 4Q 0 0 4 0L 173 0Q 177 0 177 4L 177 59Q 177 63 173 63L 4 63Q 0 63 0 59Z" stroke="rgba(33,41,48,1)" stroke-width="2" fill-opacity="1" fill="#ffffff"></path><path id="SvgjsPath1022" d="M 0 30L 177 30" stroke="rgba(33,41,48,1)" stroke-width="2" fill="none"></path><path id="SvgjsPath1023" d="M 0 0L 177 0L 177 63L 0 63Z" stroke="none" fill="none"></path><g id="SvgjsG1024"><text id="SvgjsText1025" font-family="微软雅黑" text-anchor="middle" font-size="13px" width="157px" fill="#323232" font-weight="700" align="middle" lineHeight="125%" anchor="middle" family="微软雅黑" size="13px" weight="700" font-style="" opacity="1" y="4.375" transform="rotate(0)"><tspan id="SvgjsTspan1026" dy="16" x="88.5"><tspan id="SvgjsTspan1027" style="text-decoration:;">EyeVia App</tspan></tspan></text></g><g id="SvgjsG1028"><text id="SvgjsText1029" font-family="微软雅黑" text-anchor="start" font-size="13px" width="157px" fill="#323232" font-weight="400" align="middle" lineHeight="125%" anchor="start" family="微软雅黑" size="13px" weight="400" font-style="" opacity="1" y="27.375" transform="rotate(0)"><tspan id="SvgjsTspan1030" dy="16" x="10"><tspan id="SvgjsTspan1031" style="text-decoration:;">+ props</tspan></tspan><tspan id="SvgjsTspan1032" dy="16" x="10"><tspan id="SvgjsTspan1033" style="text-decoration:;">- state</tspan></tspan></text></g></g><g id="SvgjsG1034" transform="translate(146.375,233.5)"><path id="SvgjsPath1035" d="M 0 67C 0 -22.333333333333332 99.5625 -22.333333333333332 99.5625 67C 99.5625 156.33333333333334 0 156.33333333333334 0 67Z" stroke-dasharray="10,6" stroke="rgba(33,41,48,1)" stroke-width="2" fill-opacity="1" fill="#ffffff"></path><g id="SvgjsG1036"><text id="SvgjsText1037" font-family="微软雅黑" text-anchor="middle" font-size="13px" width="80px" fill="#323232" font-weight="400" align="middle" lineHeight="125%" anchor="middle" family="微软雅黑" size="13px" weight="400" font-style="" opacity="1" y="56.375" transform="rotate(0)"></text></g></g><g id="SvgjsG1038" transform="translate(153.5,264.5)"><path id="SvgjsPath1039" d="M 0 4Q 0 0 4 0L 82 0Q 86 0 86 4L 86 66Q 86 70 82 70L 4 70Q 0 70 0 66Z" stroke="rgba(33,41,48,1)" stroke-width="2" fill-opacity="1" fill="#ffffff"></path><path id="SvgjsPath1040" d="M 0 33L 86 33" stroke="rgba(33,41,48,1)" stroke-width="2" fill="none"></path><path id="SvgjsPath1041" d="M 0 0L 86 0L 86 70L 0 70Z" stroke="none" fill="none"></path><g id="SvgjsG1042"><text id="SvgjsText1043" font-family="微软雅黑" text-anchor="middle" font-size="13px" width="66px" fill="#323232" font-weight="700" align="middle" lineHeight="125%" anchor="middle" family="微软雅黑" size="13px" weight="700" font-style="" opacity="1" y="-2.625" transform="rotate(0)"><tspan id="SvgjsTspan1044" dy="16" x="43"><tspan id="SvgjsTspan1045" style="text-decoration:;fill: rgb(0, 0, 0);">Dashboard</tspan></tspan><tspan id="SvgjsTspan1046" dy="16" x="43"><tspan id="SvgjsTspan1047" style="text-decoration:;fill: rgb(0, 0, 0);">NavBar</tspan></tspan></text></g><g id="SvgjsG1048"><text id="SvgjsText1049" font-family="微软雅黑" text-anchor="start" font-size="13px" width="66px" fill="#323232" font-weight="400" align="middle" lineHeight="125%" anchor="start" family="微软雅黑" size="13px" weight="400" font-style="" opacity="1" y="32.375" transform="rotate(0)"><tspan id="SvgjsTspan1050" dy="16" x="10"><tspan id="SvgjsTspan1051" style="text-decoration:;fill: rgb(50, 50, 50);">+ props</tspan></tspan><tspan id="SvgjsTspan1052" dy="16" x="10"><tspan id="SvgjsTspan1053" style="text-decoration:;fill: rgb(50, 50, 50);">- state</tspan></tspan></text></g></g><g id="SvgjsG1054" transform="translate(46.9375,242.5)"><path id="SvgjsPath1055" d="M 0 62.5C 0 -20.833333333333332 94 -20.833333333333332 94 62.5C 94 145.83333333333334 0 145.83333333333334 0 62.5Z" stroke-dasharray="10,6" stroke="rgba(33,41,48,1)" stroke-width="2" fill-opacity="1" fill="#ffffff"></path><g id="SvgjsG1056"><text id="SvgjsText1057" font-family="微软雅黑" text-anchor="middle" font-size="13px" width="74px" fill="#323232" font-weight="400" align="middle" lineHeight="125%" anchor="middle" family="微软雅黑" size="13px" weight="400" font-style="" opacity="1" y="51.875" transform="rotate(0)"></text></g></g><g id="SvgjsG1058" transform="translate(54.9375,264.75)"><path id="SvgjsPath1059" d="M 0 4Q 0 0 4 0L 74 0Q 78 0 78 4L 78 65.5Q 78 69.5 74 69.5L 4 69.5Q 0 69.5 0 65.5Z" stroke="rgba(33,41,48,1)" stroke-width="2" fill-opacity="1" fill="#ffffff"></path><path id="SvgjsPath1060" d="M 0 30L 78 30" stroke="rgba(33,41,48,1)" stroke-width="2" fill="none"></path><path id="SvgjsPath1061" d="M 0 0L 78 0L 78 69.5L 0 69.5Z" stroke="none" fill="none"></path><g id="SvgjsG1062"><text id="SvgjsText1063" font-family="微软雅黑" text-anchor="middle" font-size="13px" width="58px" fill="#323232" font-weight="700" align="middle" lineHeight="125%" anchor="middle" family="微软雅黑" size="13px" weight="700" font-style="" opacity="1" y="-4.125" transform="rotate(0)"><tspan id="SvgjsTspan1064" dy="16" x="39"><tspan id="SvgjsTspan1065" style="text-decoration:;">ProjectM</tspan></tspan><tspan id="SvgjsTspan1066" dy="16" x="39"><tspan id="SvgjsTspan1067" style="text-decoration:;">enuList</tspan></tspan></text></g><g id="SvgjsG1068"><text id="SvgjsText1069" font-family="微软雅黑" text-anchor="start" font-size="13px" width="58px" fill="#323232" font-weight="400" align="middle" lineHeight="125%" anchor="start" family="微软雅黑" size="13px" weight="400" font-style="" opacity="1" y="30.625" transform="rotate(0)"><tspan id="SvgjsTspan1070" dy="16" x="10"><tspan id="SvgjsTspan1071" style="text-decoration:;">+ props</tspan></tspan><tspan id="SvgjsTspan1072" dy="16" x="10"><tspan id="SvgjsTspan1073" style="text-decoration:;">- state</tspan></tspan></text></g></g><g id="SvgjsG1074" transform="translate(255.03125,226.75)"><path id="SvgjsPath1075" d="M 0 73.75C 0 -24.583333333333332 116.375 -24.583333333333332 116.375 73.75C 116.375 172.08333333333334 0 172.08333333333334 0 73.75Z" stroke-dasharray="10,6" stroke="rgba(33,41,48,1)" stroke-width="2" fill-opacity="1" fill="#ffffff"></path><g id="SvgjsG1076"><text id="SvgjsText1077" font-family="微软雅黑" text-anchor="middle" font-size="13px" width="97px" fill="#323232" font-weight="400" align="middle" lineHeight="125%" anchor="middle" family="微软雅黑" size="13px" weight="400" font-style="" opacity="1" y="63.125" transform="rotate(0)"></text></g></g><g id="SvgjsG1078" transform="translate(260.0625,264.5)"><path id="SvgjsPath1079" d="M 0 4Q 0 0 4 0L 95 0Q 99 0 99 4L 99 66Q 99 70 95 70L 4 70Q 0 70 0 66Z" stroke="rgba(33,41,48,1)" stroke-width="2" fill-opacity="1" fill="#ffffff"></path><path id="SvgjsPath1080" d="M 0 30L 99 30" stroke="rgba(33,41,48,1)" stroke-width="2" fill="none"></path><path id="SvgjsPath1081" d="M 0 0L 99 0L 99 70L 0 70Z" stroke="none" fill="none"></path><g id="SvgjsG1082"><text id="SvgjsText1083" font-family="微软雅黑" text-anchor="middle" font-size="13px" width="79px" fill="#323232" font-weight="700" align="middle" lineHeight="125%" anchor="middle" family="微软雅黑" size="13px" weight="700" font-style="" opacity="1" y="-4.125" transform="rotate(0)"><tspan id="SvgjsTspan1084" dy="16" x="49.5"><tspan id="SvgjsTspan1085" style="text-decoration:;fill: rgb(0, 0, 0);">DashboardInf</tspan></tspan><tspan id="SvgjsTspan1086" dy="16" x="49.5"><tspan id="SvgjsTspan1087" style="text-decoration:;fill: rgb(0, 0, 0);">o</tspan></tspan></text></g><g id="SvgjsG1088"><text id="SvgjsText1089" font-family="微软雅黑" text-anchor="start" font-size="13px" width="79px" fill="#323232" font-weight="400" align="middle" lineHeight="125%" anchor="start" family="微软雅黑" size="13px" weight="400" font-style="" opacity="1" y="30.875" transform="rotate(0)"><tspan id="SvgjsTspan1090" dy="16" x="10"><tspan id="SvgjsTspan1091" style="text-decoration:;fill: rgb(50, 50, 50);">+ props</tspan></tspan><tspan id="SvgjsTspan1092" dy="16" x="10"><tspan id="SvgjsTspan1093" style="text-decoration:;fill: rgb(50, 50, 50);">- state</tspan></tspan></text></g></g><g id="SvgjsG1094" transform="translate(621.1875,403.75)"><path id="SvgjsPath1095" d="M 0 4Q 0 0 4 0L 88 0Q 92 0 92 4L 92 62.5Q 92 66.5 88 66.5L 4 66.5Q 0 66.5 0 62.5Z" stroke="rgba(33,41,48,1)" stroke-width="2" fill-opacity="1" fill="#ffffff"></path><path id="SvgjsPath1096" d="M 0 33L 92 33" stroke="rgba(33,41,48,1)" stroke-width="2" fill="none"></path><path id="SvgjsPath1097" d="M 0 0L 92 0L 92 66.5L 0 66.5Z" stroke="none" fill="none"></path><g id="SvgjsG1098"><text id="SvgjsText1099" font-family="微软雅黑" text-anchor="middle" font-size="13px" width="72px" fill="#323232" font-weight="700" align="middle" lineHeight="125%" anchor="middle" family="微软雅黑" size="13px" weight="700" font-style="" opacity="1" y="-2.625" transform="rotate(0)"><tspan id="SvgjsTspan1100" dy="16" x="46"><tspan id="SvgjsTspan1101" style="text-decoration:;">DashboardF</tspan></tspan><tspan id="SvgjsTspan1102" dy="16" x="46"><tspan id="SvgjsTspan1103" style="text-decoration:;">ilterPanel</tspan></tspan></text></g><g id="SvgjsG1104"><text id="SvgjsText1105" font-family="微软雅黑" text-anchor="start" font-size="13px" width="72px" fill="#323232" font-weight="400" align="middle" lineHeight="125%" anchor="start" family="微软雅黑" size="13px" weight="400" font-style="" opacity="1" y="30.625" transform="rotate(0)"><tspan id="SvgjsTspan1106" dy="16" x="10"><tspan id="SvgjsTspan1107" style="text-decoration:;fill: rgb(50, 50, 50);">+ props</tspan></tspan><tspan id="SvgjsTspan1108" dy="16" x="10"><tspan id="SvgjsTspan1109" style="text-decoration:;fill: rgb(50, 50, 50);">- state</tspan></tspan></text></g></g><g id="SvgjsG1110" transform="translate(536.9375,50)"><path id="SvgjsPath1111" d="M 0 0L 100 0L 100 40L 0 40Z" stroke="none" fill="none"></path><g id="SvgjsG1112"><text id="SvgjsText1113" font-family="微软雅黑" text-anchor="middle" font-size="13px" width="100px" fill="#323232" font-weight="400" align="middle" lineHeight="125%" anchor="middle" family="微软雅黑" size="13px" weight="400" font-style="" opacity="1" y="9.375" transform="rotate(0)"><tspan id="SvgjsTspan1114" dy="16" x="50"><tspan id="SvgjsTspan1115" style="text-decoration:;">Error Boundary</tspan></tspan></text></g></g><g id="SvgjsG1116" transform="translate(489.9375,213.5)"><path id="SvgjsPath1117" d="M 0 133.5C 0 -44.5 147 -44.5 147 133.5C 147 311.5 0 311.5 0 133.5Z" stroke-dasharray="10,6" stroke="rgba(33,41,48,1)" stroke-width="2" fill-opacity="1" fill="#ffffff"></path><g id="SvgjsG1118"><text id="SvgjsText1119" font-family="微软雅黑" text-anchor="middle" font-size="13px" width="127px" fill="#323232" font-weight="400" align="middle" lineHeight="125%" anchor="middle" family="微软雅黑" size="13px" weight="400" font-style="" opacity="1" y="122.875" transform="rotate(0)"></text></g></g><g id="SvgjsG1120" transform="translate(621.1875,512.25)"><path id="SvgjsPath1121" d="M 0 4Q 0 0 4 0L 88 0Q 92 0 92 4L 92 62Q 92 66 88 66L 4 66Q 0 66 0 62Z" stroke="rgba(33,41,48,1)" stroke-width="2" fill-opacity="1" fill="#ffffff"></path><path id="SvgjsPath1122" d="M 0 33L 92 33" stroke="rgba(33,41,48,1)" stroke-width="2" fill="none"></path><path id="SvgjsPath1123" d="M 0 0L 92 0L 92 66L 0 66Z" stroke="none" fill="none"></path><g id="SvgjsG1124"><text id="SvgjsText1125" font-family="微软雅黑" text-anchor="middle" font-size="13px" width="72px" fill="#323232" font-weight="700" align="middle" lineHeight="125%" anchor="middle" family="微软雅黑" size="13px" weight="700" font-style="" opacity="1" y="-2.625" transform="rotate(0)"><tspan id="SvgjsTspan1126" dy="16" x="46"><tspan id="SvgjsTspan1127" style="text-decoration:;">DashboardF</tspan></tspan><tspan id="SvgjsTspan1128" dy="16" x="46"><tspan id="SvgjsTspan1129" style="text-decoration:;">ilterList</tspan></tspan></text></g><g id="SvgjsG1130"><text id="SvgjsText1131" font-family="微软雅黑" text-anchor="start" font-size="13px" width="72px" fill="#323232" font-weight="400" align="middle" lineHeight="125%" anchor="start" family="微软雅黑" size="13px" weight="400" font-style="" opacity="1" y="30.375" transform="rotate(0)"><tspan id="SvgjsTspan1132" dy="16" x="10"><tspan id="SvgjsTspan1133" style="text-decoration:;fill: rgb(50, 50, 50);">+ props</tspan></tspan><tspan id="SvgjsTspan1134" dy="16" x="10"><tspan id="SvgjsTspan1135" style="text-decoration:;fill: rgb(50, 50, 50);">- state</tspan></tspan></text></g></g><g id="SvgjsG1136"><path id="SvgjsPath1137" d="M667.1875 471.25L667.1875 491.25L667.1875 491.25L667.1875 508.65" stroke="#323232" stroke-width="2" fill="none" marker-end="url(#SvgjsMarker1138)"></path></g><g id="SvgjsG1140" transform="translate(773.1875,406)"><path id="SvgjsPath1141" d="M 0 4Q 0 0 4 0L 88 0Q 92 0 92 4L 92 62Q 92 66 88 66L 4 66Q 0 66 0 62Z" stroke="rgba(33,41,48,1)" stroke-width="2" fill-opacity="1" fill="#ffffff"></path><path id="SvgjsPath1142" d="M 0 33L 92 33" stroke="rgba(33,41,48,1)" stroke-width="2" fill="none"></path><path id="SvgjsPath1143" d="M 0 0L 92 0L 92 66L 0 66Z" stroke="none" fill="none"></path><g id="SvgjsG1144"><text id="SvgjsText1145" font-family="微软雅黑" text-anchor="middle" font-size="13px" width="72px" fill="#323232" font-weight="700" align="middle" lineHeight="125%" anchor="middle" family="微软雅黑" size="13px" weight="700" font-style="" opacity="1" y="-2.625" transform="rotate(0)"><tspan id="SvgjsTspan1146" dy="16" x="46"><tspan id="SvgjsTspan1147" style="text-decoration:;">DashCardLi</tspan></tspan><tspan id="SvgjsTspan1148" dy="16" x="46"><tspan id="SvgjsTspan1149" style="text-decoration:;">st</tspan></tspan></text></g><g id="SvgjsG1150"><text id="SvgjsText1151" font-family="微软雅黑" text-anchor="start" font-size="13px" width="72px" fill="#323232" font-weight="400" align="middle" lineHeight="125%" anchor="start" family="微软雅黑" size="13px" weight="400" font-style="" opacity="1" y="30.375" transform="rotate(0)"><tspan id="SvgjsTspan1152" dy="16" x="10"><tspan id="SvgjsTspan1153" style="text-decoration:;fill: rgb(50, 50, 50);">+ props</tspan></tspan><tspan id="SvgjsTspan1154" dy="16" x="10"><tspan id="SvgjsTspan1155" style="text-decoration:;fill: rgb(50, 50, 50);">- state</tspan></tspan></text></g></g><g id="SvgjsG1156" transform="translate(652.6875,226.75)"><path id="SvgjsPath1157" d="M 0 61.25C 0 -20.416666666666668 212.5 -20.416666666666668 212.5 61.25C 212.5 142.91666666666666 0 142.91666666666666 0 61.25Z" stroke-dasharray="10,6" stroke="rgba(33,41,48,1)" stroke-width="2" fill-opacity="1" fill="#ffffff"></path><g id="SvgjsG1158"><text id="SvgjsText1159" font-family="微软雅黑" text-anchor="middle" font-size="13px" width="193px" fill="#323232" font-weight="400" align="middle" lineHeight="125%" anchor="middle" family="微软雅黑" size="13px" weight="400" font-style="" opacity="1" y="50.625" transform="rotate(0)"></text></g></g><g id="SvgjsG1160" transform="translate(694.6875,264.5)"><path id="SvgjsPath1161" d="M 0 4Q 0 0 4 0L 96.5 0Q 100.5 0 100.5 4L 100.5 62Q 100.5 66 96.5 66L 4 66Q 0 66 0 62Z" stroke="rgba(33,41,48,1)" stroke-width="2" fill-opacity="1" fill="#ffffff"></path><path id="SvgjsPath1162" d="M 0 33L 100.5 33" stroke="rgba(33,41,48,1)" stroke-width="2" fill="none"></path><path id="SvgjsPath1163" d="M 0 0L 100.5 0L 100.5 66L 0 66Z" stroke="none" fill="none"></path><g id="SvgjsG1164"><text id="SvgjsText1165" font-family="微软雅黑" text-anchor="middle" font-size="13px" width="81px" fill="#323232" font-weight="700" align="middle" lineHeight="125%" anchor="middle" family="微软雅黑" size="13px" weight="700" font-style="" opacity="1" y="-2.625" transform="rotate(0)"><tspan id="SvgjsTspan1166" dy="16" x="50.5"><tspan id="SvgjsTspan1167" style="text-decoration:;">ScreenConten</tspan></tspan><tspan id="SvgjsTspan1168" dy="16" x="50.5"><tspan id="SvgjsTspan1169" style="text-decoration:;">t</tspan></tspan></text></g><g id="SvgjsG1170"><text id="SvgjsText1171" font-family="微软雅黑" text-anchor="start" font-size="13px" width="81px" fill="#323232" font-weight="400" align="middle" lineHeight="125%" anchor="start" family="微软雅黑" size="13px" weight="400" font-style="" opacity="1" y="30.375" transform="rotate(0)"><tspan id="SvgjsTspan1172" dy="16" x="10"><tspan id="SvgjsTspan1173" style="text-decoration:;fill: rgb(50, 50, 50);">+ props</tspan></tspan><tspan id="SvgjsTspan1174" dy="16" x="10"><tspan id="SvgjsTspan1175" style="text-decoration:;fill: rgb(50, 50, 50);">- state</tspan></tspan></text></g></g><g id="SvgjsG1176"><path id="SvgjsPath1177" d="M738.1875 382L667.1875 382L667.1875 400.15" stroke="#323232" stroke-width="2" fill="none" marker-end="url(#SvgjsMarker1178)"></path></g><g id="SvgjsG1180"><path id="SvgjsPath1181" d="M718.1875 382L819.1875 382L819.1875 402.4" stroke="#323232" stroke-width="2" fill="none" marker-end="url(#SvgjsMarker1182)"></path></g><g id="SvgjsG1184"><path id="SvgjsPath1185" d="M747.9375 331.5L747.9375 351.5L746.9375 351.5L746.9375 372.5" stroke="#323232" stroke-width="2" fill="none" marker-end="url(#SvgjsMarker1186)"></path></g><g id="SvgjsG1188" transform="translate(368.25,220)"><path id="SvgjsPath1189" d="M 0 137.25C 0 -45.75 124.6875 -45.75 124.6875 137.25C 124.6875 320.25 0 320.25 0 137.25Z" stroke-dasharray="10,6" stroke="rgba(33,41,48,1)" stroke-width="2" fill-opacity="1" fill="#ffffff"></path><g id="SvgjsG1190"><text id="SvgjsText1191" font-family="微软雅黑" text-anchor="middle" font-size="13px" width="105px" fill="#323232" font-weight="400" align="middle" lineHeight="125%" anchor="middle" family="微软雅黑" size="13px" weight="400" font-style="" opacity="1" y="126.625" transform="rotate(0)"></text></g></g><g id="SvgjsG1192" transform="translate(380.75,264.5)"><path id="SvgjsPath1193" d="M 0 4Q 0 0 4 0L 96.1875 0Q 100.1875 0 100.1875 4L 100.1875 59Q 100.1875 63 96.1875 63L 4 63Q 0 63 0 59Z" stroke="rgba(33,41,48,1)" stroke-width="2" fill-opacity="1" fill="#ffffff"></path><path id="SvgjsPath1194" d="M 0 30L 100.1875 30" stroke="rgba(33,41,48,1)" stroke-width="2" fill="none"></path><path id="SvgjsPath1195" d="M 0 0L 100.1875 0L 100.1875 63L 0 63Z" stroke="none" fill="none"></path><g id="SvgjsG1196"><text id="SvgjsText1197" font-family="微软雅黑" text-anchor="middle" font-size="13px" width="81px" fill="#323232" font-weight="700" align="middle" lineHeight="125%" anchor="middle" family="微软雅黑" size="13px" weight="700" font-style="" opacity="1" y="4.375" transform="rotate(0)"><tspan id="SvgjsTspan1198" dy="16" x="50.5"><tspan id="SvgjsTspan1199" style="text-decoration:;fill: rgb(0, 0, 0);">SideBar</tspan></tspan></text></g><g id="SvgjsG1200"><text id="SvgjsText1201" font-family="微软雅黑" text-anchor="start" font-size="13px" width="81px" fill="#323232" font-weight="400" align="middle" lineHeight="125%" anchor="start" family="微软雅黑" size="13px" weight="400" font-style="" opacity="1" y="27.375" transform="rotate(0)"><tspan id="SvgjsTspan1202" dy="16" x="10"><tspan id="SvgjsTspan1203" style="text-decoration:;fill: rgb(50, 50, 50);">+ props</tspan></tspan><tspan id="SvgjsTspan1204" dy="16" x="10"><tspan id="SvgjsTspan1205" style="text-decoration:;fill: rgb(50, 50, 50);">- state</tspan></tspan></text></g></g><g id="SvgjsG1206" transform="translate(501.4375,264.5)"><path id="SvgjsPath1207" d="M 0 4Q 0 0 4 0L 95 0Q 99 0 99 4L 99 59Q 99 63 95 63L 4 63Q 0 63 0 59Z" stroke="rgba(33,41,48,1)" stroke-width="2" fill-opacity="1" fill="#ffffff"></path><path id="SvgjsPath1208" d="M 0 30L 99 30" stroke="rgba(33,41,48,1)" stroke-width="2" fill="none"></path><path id="SvgjsPath1209" d="M 0 0L 99 0L 99 63L 0 63Z" stroke="none" fill="none"></path><g id="SvgjsG1210"><text id="SvgjsText1211" font-family="微软雅黑" text-anchor="middle" font-size="13px" width="79px" fill="#323232" font-weight="700" align="middle" lineHeight="125%" anchor="middle" family="微软雅黑" size="13px" weight="700" font-style="" opacity="1" y="4.375" transform="rotate(0)"><tspan id="SvgjsTspan1212" dy="16" x="49.5"><tspan id="SvgjsTspan1213" style="text-decoration:;fill: rgb(0, 0, 0);">TopBar</tspan></tspan></text></g><g id="SvgjsG1214"><text id="SvgjsText1215" font-family="微软雅黑" text-anchor="start" font-size="13px" width="79px" fill="#323232" font-weight="400" align="middle" lineHeight="125%" anchor="start" family="微软雅黑" size="13px" weight="400" font-style="" opacity="1" y="27.375" transform="rotate(0)"><tspan id="SvgjsTspan1216" dy="16" x="10"><tspan id="SvgjsTspan1217" style="text-decoration:;fill: rgb(50, 50, 50);">+ props</tspan></tspan><tspan id="SvgjsTspan1218" dy="16" x="10"><tspan id="SvgjsTspan1219" style="text-decoration:;fill: rgb(50, 50, 50);">- state</tspan></tspan></text></g></g><g id="SvgjsG1220" transform="translate(501.4375,356)"><path id="SvgjsPath1221" d="M 0 4Q 0 0 4 0L 95 0Q 99 0 99 4L 99 62Q 99 66 95 66L 4 66Q 0 66 0 62Z" stroke="rgba(33,41,48,1)" stroke-width="2" fill-opacity="1" fill="#ffffff"></path><path id="SvgjsPath1222" d="M 0 33L 99 33" stroke="rgba(33,41,48,1)" stroke-width="2" fill="none"></path><path id="SvgjsPath1223" d="M 0 0L 99 0L 99 66L 0 66Z" stroke="none" fill="none"></path><g id="SvgjsG1224"><text id="SvgjsText1225" font-family="微软雅黑" text-anchor="middle" font-size="13px" width="79px" fill="#323232" font-weight="700" align="middle" lineHeight="125%" anchor="middle" family="微软雅黑" size="13px" weight="700" font-style="" opacity="1" y="-2.625" transform="rotate(0)"><tspan id="SvgjsTspan1226" dy="16" x="49.5"><tspan id="SvgjsTspan1227" style="text-decoration:;">DashboardSc</tspan></tspan><tspan id="SvgjsTspan1228" dy="16" x="49.5"><tspan id="SvgjsTspan1229" style="text-decoration:;">reenMenu</tspan></tspan></text></g><g id="SvgjsG1230"><text id="SvgjsText1231" font-family="微软雅黑" text-anchor="start" font-size="13px" width="79px" fill="#323232" font-weight="400" align="middle" lineHeight="125%" anchor="start" family="微软雅黑" size="13px" weight="400" font-style="" opacity="1" y="30.375" transform="rotate(0)"><tspan id="SvgjsTspan1232" dy="16" x="10"><tspan id="SvgjsTspan1233" style="text-decoration:;fill: rgb(50, 50, 50);">+ props</tspan></tspan><tspan id="SvgjsTspan1234" dy="16" x="10"><tspan id="SvgjsTspan1235" style="text-decoration:;fill: rgb(50, 50, 50);">- state</tspan></tspan></text></g></g><g id="SvgjsG1236"><path id="SvgjsPath1237" d="M550.9375 328.5L550.9375 341.75L550.9375 341.75L550.9375 352.4" stroke="#323232" stroke-width="2" fill="none" marker-end="url(#SvgjsMarker1238)"></path></g><g id="SvgjsG1240" transform="translate(380.5,357.5)"><path id="SvgjsPath1241" d="M 0 4Q 0 0 4 0L 96.1875 0Q 100.1875 0 100.1875 4L 100.1875 59Q 100.1875 63 96.1875 63L 4 63Q 0 63 0 59Z" stroke="rgba(33,41,48,1)" stroke-width="2" fill-opacity="1" fill="#ffffff"></path><path id="SvgjsPath1242" d="M 0 30L 100.1875 30" stroke="rgba(33,41,48,1)" stroke-width="2" fill="none"></path><path id="SvgjsPath1243" d="M 0 0L 100.1875 0L 100.1875 63L 0 63Z" stroke="none" fill="none"></path><g id="SvgjsG1244"><text id="SvgjsText1245" font-family="微软雅黑" text-anchor="middle" font-size="13px" width="81px" fill="#323232" font-weight="700" align="middle" lineHeight="125%" anchor="middle" family="微软雅黑" size="13px" weight="700" font-style="" opacity="1" y="4.375" transform="rotate(0)"><tspan id="SvgjsTspan1246" dy="16" x="50.5"><tspan id="SvgjsTspan1247" style="text-decoration:;">Crumb</tspan></tspan></text></g><g id="SvgjsG1248"><text id="SvgjsText1249" font-family="微软雅黑" text-anchor="start" font-size="13px" width="81px" fill="#323232" font-weight="400" align="middle" lineHeight="125%" anchor="start" family="微软雅黑" size="13px" weight="400" font-style="" opacity="1" y="27.375" transform="rotate(0)"><tspan id="SvgjsTspan1250" dy="16" x="10"><tspan id="SvgjsTspan1251" style="text-decoration:;fill: rgb(50, 50, 50);">+ props</tspan></tspan><tspan id="SvgjsTspan1252" dy="16" x="10"><tspan id="SvgjsTspan1253" style="text-decoration:;fill: rgb(50, 50, 50);">- state</tspan></tspan></text></g></g><g id="SvgjsG1254"><path id="SvgjsPath1255" d="M430.84375 328.5L430.84375 342.5L430.84375 342.5L430.84375 353.9" stroke="#323232" stroke-width="2" fill="none" marker-end="url(#SvgjsMarker1256)"></path></g><g id="SvgjsG1258"><path id="SvgjsPath1259" d="M744.9375 202.5L93.9375 202.5L93.9375 261.15" stroke="#323232" stroke-width="2" fill="none" marker-end="url(#SvgjsMarker1260)"></path></g><g id="SvgjsG1262"><path id="SvgjsPath1263" d="M196.5 203.5L196.5 234L196.5 234L196.5 260.9" stroke="#323232" stroke-width="2" fill="none" marker-end="url(#SvgjsMarker1264)"></path></g><g id="SvgjsG1266"><path id="SvgjsPath1267" d="M316.9375 202.5L316.9375 233.5L316.9375 233.5L316.9375 260.9" stroke="#323232" stroke-width="2" fill="none" marker-end="url(#SvgjsMarker1268)"></path></g><g id="SvgjsG1270"><path id="SvgjsPath1271" d="M430.84375 201.5L430.84375 233L430.84375 233L430.84375 260.9" stroke="#323232" stroke-width="2" fill="none" marker-end="url(#SvgjsMarker1272)"></path></g><g id="SvgjsG1274"><path id="SvgjsPath1275" d="M550.9375 202.5L550.9375 233.5L550.9375 233.5L550.9375 260.9" stroke="#323232" stroke-width="2" fill="none" marker-end="url(#SvgjsMarker1276)"></path></g><g id="SvgjsG1278"><path id="SvgjsPath1279" d="M744.9375 201.5L744.9375 233L744.9375 233L744.9375 260.9" stroke="#323232" stroke-width="2" fill="none" marker-end="url(#SvgjsMarker1280)"></path></g><g id="SvgjsG1282"><path id="SvgjsPath1283" d="M403.4375 116L403.4375 156.75L403.4375 156.75L403.4375 198.5" stroke="#323232" stroke-width="2" fill="none" marker-end="url(#SvgjsMarker1284)"></path></g><g id="SvgjsG1286" transform="translate(25,357.5)"><path id="SvgjsPath1287" d="M 0 0L 100 0L 100 40L 0 40Z" stroke="none" fill="none"></path><g id="SvgjsG1288"><text id="SvgjsText1289" font-family="微软雅黑" text-anchor="middle" font-size="13px" width="100px" fill="#323232" font-weight="400" align="middle" lineHeight="125%" anchor="middle" family="微软雅黑" size="13px" weight="400" font-style="" opacity="1" y="9.375" transform="rotate(0)"><tspan id="SvgjsTspan1290" dy="16" x="50"><tspan id="SvgjsTspan1291" style="text-decoration:;">Error Boundary</tspan></tspan></text></g></g><g id="SvgjsG1292" transform="translate(146.5,367.5)"><path id="SvgjsPath1293" d="M 0 0L 100 0L 100 40L 0 40Z" stroke="none" fill="none"></path><g id="SvgjsG1294"><text id="SvgjsText1295" font-family="微软雅黑" text-anchor="middle" font-size="13px" width="100px" fill="#323232" font-weight="400" align="middle" lineHeight="125%" anchor="middle" family="微软雅黑" size="13px" weight="400" font-style="" opacity="1" y="9.375" transform="rotate(0)"><tspan id="SvgjsTspan1296" dy="16" x="50"><tspan id="SvgjsTspan1297" style="text-decoration:;">Error Boundary</tspan></tspan></text></g></g><g id="SvgjsG1298" transform="translate(255.03125,382)"><path id="SvgjsPath1299" d="M 0 0L 100 0L 100 40L 0 40Z" stroke="none" fill="none"></path><g id="SvgjsG1300"><text id="SvgjsText1301" font-family="微软雅黑" text-anchor="middle" font-size="13px" width="100px" fill="#323232" font-weight="400" align="middle" lineHeight="125%" anchor="middle" family="微软雅黑" size="13px" weight="400" font-style="" opacity="1" y="9.375" transform="rotate(0)"><tspan id="SvgjsTspan1302" dy="16" x="50"><tspan id="SvgjsTspan1303" style="text-decoration:;">Error Boundary</tspan></tspan></text></g></g><g id="SvgjsG1304" transform="translate(371.40625,490.5)"><path id="SvgjsPath1305" d="M 0 0L 100 0L 100 40L 0 40Z" stroke="none" fill="none"></path><g id="SvgjsG1306"><text id="SvgjsText1307" font-family="微软雅黑" text-anchor="middle" font-size="13px" width="100px" fill="#323232" font-weight="400" align="middle" lineHeight="125%" anchor="middle" family="微软雅黑" size="13px" weight="400" font-style="" opacity="1" y="9.375" transform="rotate(0)"><tspan id="SvgjsTspan1308" dy="16" x="50"><tspan id="SvgjsTspan1309" style="text-decoration:;">Error Boundary</tspan></tspan></text></g></g><g id="SvgjsG1310" transform="translate(510.5,472.25)"><path id="SvgjsPath1311" d="M 0 0L 100 0L 100 40L 0 40Z" stroke="none" fill="none"></path><g id="SvgjsG1312"><text id="SvgjsText1313" font-family="微软雅黑" text-anchor="middle" font-size="13px" width="100px" fill="#323232" font-weight="400" align="middle" lineHeight="125%" anchor="middle" family="微软雅黑" size="13px" weight="400" font-style="" opacity="1" y="9.375" transform="rotate(0)"><tspan id="SvgjsTspan1314" dy="16" x="50"><tspan id="SvgjsTspan1315" style="text-decoration:;">Error Boundary</tspan></tspan></text></g></g><g id="SvgjsG1316" transform="translate(631.9375,637.5)"><path id="SvgjsPath1317" d="M 0 0L 100 0L 100 40L 0 40Z" stroke="none" fill="none"></path><g id="SvgjsG1318"><text id="SvgjsText1319" font-family="微软雅黑" text-anchor="middle" font-size="13px" width="100px" fill="#323232" font-weight="400" align="middle" lineHeight="125%" anchor="middle" family="微软雅黑" size="13px" weight="400" font-style="" opacity="1" y="9.375" transform="rotate(0)"><tspan id="SvgjsTspan1320" dy="16" x="50"><tspan id="SvgjsTspan1321" style="text-decoration:;">Error Boundary</tspan></tspan></text></g></g><g id="SvgjsG1322" transform="translate(793.9375,490.5)"><path id="SvgjsPath1323" d="M 0 0L 100 0L 100 40L 0 40Z" stroke="none" fill="none"></path><g id="SvgjsG1324"><text id="SvgjsText1325" font-family="微软雅黑" text-anchor="middle" font-size="13px" width="100px" fill="#323232" font-weight="400" align="middle" lineHeight="125%" anchor="middle" family="微软雅黑" size="13px" weight="400" font-style="" opacity="1" y="9.375" transform="rotate(0)"><tspan id="SvgjsTspan1326" dy="16" x="50"><tspan id="SvgjsTspan1327" style="text-decoration:;">Error Boundary</tspan></tspan></text></g></g><g id="SvgjsG1328" transform="translate(880.9375,277.5)"><path id="SvgjsPath1329" d="M 0 0L 100 0L 100 40L 0 40Z" stroke="none" fill="none"></path><g id="SvgjsG1330"><text id="SvgjsText1331" font-family="微软雅黑" text-anchor="middle" font-size="13px" width="100px" fill="#323232" font-weight="400" align="middle" lineHeight="125%" anchor="middle" family="微软雅黑" size="13px" weight="400" font-style="" opacity="1" y="9.375" transform="rotate(0)"><tspan id="SvgjsTspan1332" dy="16" x="50"><tspan id="SvgjsTspan1333" style="text-decoration:;">Error Boundary</tspan></tspan></text></g></g></svg>